<mxfile host="app.diagrams.net" agent="Mozilla/5.0 (Windows NT 10.0; Win64; x64) AppleWebKit/537.36 (KHTML, like Gecko) Chrome/139.0.0.0 Safari/537.36" version="28.1.0">
  <diagram name="Page-1" id="rtVzQTqH23q1doKKSaO2">
    <mxGraphModel dx="1426" dy="1777" grid="1" gridSize="10" guides="1" tooltips="1" connect="1" arrows="1" fold="1" page="1" pageScale="1" pageWidth="1600" pageHeight="1000" math="0" shadow="0">
      <root>
        <mxCell id="0" />
        <mxCell id="1" parent="0" />
        <mxCell id="case" value="Case&#xa;â€¢ CaseBK (PK)&#xa;â€¢ PlanID (FK)&#xa;â€¢ CurrentStatusID (FK)&#xa;â€¢ CreatedDateID (FK)&#xa;â€¢ ClosedDateID (FK)&#xa;â€¢ StatusAsOfDateID (FK)&#xa;â€¢ OwnerName / OwnerPhone / OwnerEmail&#xa;â€¢ AgentName / HasActiveAppt&#xa;â€¢ OpenReqs / ClosedReqs / LastOrdered / LastReceived" style="rounded=1;whiteSpace=wrap;html=1;fillColor=#ffe6cc;strokeColor=#000000;fontSize=12;" parent="1" vertex="1">
          <mxGeometry x="560" y="420" width="430" height="240" as="geometry" />
        </mxCell>
        <mxCell id="csc" value="CaseStatusChange&#xa;â€¢ CaseStatusChangeID (PK)&#xa;â€¢ CaseBK (FK)&#xa;â€¢ StatusID (FK)&#xa;â€¢ ChangeDateID (FK)&#xa;â€¢ ChangeDateTime" style="rounded=1;whiteSpace=wrap;html=1;fillColor=#ffe6cc;strokeColor=#000000;fontSize=12;" parent="1" vertex="1">
          <mxGeometry x="580" y="-70" width="370" height="160" as="geometry" />
        </mxCell>
        <mxCell id="date" value="Date&#xa;â€¢ DateID (PK)&#xa;â€¢ Date / Year / Quarter / Month / Day&#xa;â€¢ DayOfWeek / MonthName / DayName / IsWeekend" style="rounded=1;whiteSpace=wrap;html=1;fillColor=#dae8fc;strokeColor=#000000;fontSize=12;" parent="1" vertex="1">
          <mxGeometry x="50" y="130" width="320" height="160" as="geometry" />
        </mxCell>
        <mxCell id="status" value="Status&#xa;â€¢ StatusID (PK)&#xa;â€¢ CaStatusCd / ScetypeCd&#xa;â€¢ ConformedStage / StageOrder" style="rounded=1;whiteSpace=wrap;html=1;fillColor=#dae8fc;strokeColor=#000000;fontSize=12;" parent="1" vertex="1">
          <mxGeometry x="1080" y="-10" width="300" height="160" as="geometry" />
        </mxCell>
        <mxCell id="plan" value="Plan&#xa;â€¢ PlanID (PK)&#xa;â€¢ CarrierID&#xa;â€¢ PlanName&#xa;â€¢ ProductLine&#xa;â€¢ PolicyType" style="rounded=1;whiteSpace=wrap;html=1;fillColor=#dae8fc;strokeColor=#000000;fontSize=12;" parent="1" vertex="1">
          <mxGeometry x="110" y="440" width="300" height="160" as="geometry" />
        </mxCell>
        <mxCell id="owner" value="CaseOwnerBridge&#xa;(ranked owners; primary surfaced on Case)" style="rounded=1;whiteSpace=wrap;html=1;fillColor=#e1d5e7;strokeColor=#000000;fontSize=12;" parent="1" vertex="1">
          <mxGeometry x="1110" y="360" width="300" height="100" as="geometry" />
        </mxCell>
        <mxCell id="assigned" value="CaseAssignedAgent&#xa;(assigned agent + appointments)" style="rounded=1;whiteSpace=wrap;html=1;fillColor=#e1d5e7;strokeColor=#000000;fontSize=12;" parent="1" vertex="1">
          <mxGeometry x="1020" y="840" width="320" height="100" as="geometry" />
        </mxCell>
        <mxCell id="reqs" value="CaseRequirements&#xa;(counts + last ordered/received)" style="rounded=1;whiteSpace=wrap;html=1;fillColor=#e1d5e7;strokeColor=#000000;fontSize=12;" parent="1" vertex="1">
          <mxGeometry x="350" y="850" width="320" height="100" as="geometry" />
        </mxCell>
        <mxCell id="edge_csc_case" value="FK: CaseBK â†’ Case.CaseBK" style="endArrow=block;endSize=8;rounded=1;fontSize=11;strokeColor=#000000;" parent="1" source="csc" target="case" edge="1">
          <mxGeometry relative="1" as="geometry" />
        </mxCell>
        <mxCell id="edge_case_plan" value="PlanID â†’ Plan.PlanID" style="endArrow=block;endSize=8;rounded=1;fontSize=11;strokeColor=#000000;" parent="1" source="case" target="plan" edge="1">
          <mxGeometry relative="1" as="geometry" />
        </mxCell>
        <mxCell id="edge_case_status" value="CurrentStatusID â†’ Status.StatusID" style="endArrow=block;endSize=8;rounded=1;fontSize=11;strokeColor=#000000;" parent="1" source="case" target="status" edge="1">
          <mxGeometry relative="1" as="geometry" />
        </mxCell>
        <mxCell id="edge_case_date" value="CreatedDateID, ClosedDateID, StatusAsOfDateID â†’ Date.DateID" style="endArrow=block;endSize=8;rounded=1;fontSize=11;strokeColor=#000000;" parent="1" source="case" target="date" edge="1">
          <mxGeometry relative="1" as="geometry" />
        </mxCell>
        <mxCell id="edge_csc_status" value="StatusID â†’ Status.StatusID" style="endArrow=block;endSize=8;rounded=1;fontSize=11;strokeColor=#000000;" parent="1" source="csc" target="status" edge="1">
          <mxGeometry relative="1" as="geometry" />
        </mxCell>
        <mxCell id="edge_csc_date" value="ChangeDateID â†’ Date.DateID" style="endArrow=block;endSize=8;rounded=1;fontSize=11;strokeColor=#000000;" parent="1" source="csc" target="date" edge="1">
          <mxGeometry relative="1" as="geometry" />
        </mxCell>
        <mxCell id="edge_owner_case" value="Primary owner â†’ OwnerName/Phone/Email" style="dashed=1;dashPattern=3 3;endArrow=block;endSize=8;rounded=1;fontSize=11;strokeColor=#000000;" parent="1" source="owner" target="case" edge="1">
          <mxGeometry relative="1" as="geometry" />
        </mxCell>
        <mxCell id="edge_assigned_case" value="Assigned agent + appt â†’ AgentName/HasActiveAppt" style="dashed=1;dashPattern=3 3;endArrow=block;endSize=8;rounded=1;fontSize=11;strokeColor=#000000;" parent="1" source="assigned" target="case" edge="1">
          <mxGeometry relative="1" as="geometry" />
        </mxCell>
        <mxCell id="edge_reqs_case" value="Rollups â†’ OpenReqs/ClosedReqs/LastOrdered/LastReceived" style="dashed=1;dashPattern=3 3;endArrow=block;endSize=8;rounded=1;fontSize=11;strokeColor=#000000;" parent="1" source="reqs" target="case" edge="1">
          <mxGeometry relative="1" as="geometry" />
        </mxCell>
        <mxCell id="legend" value="Legend&#xa;í ½í¿¨ Case / Events (facts)&#xa;í ½í¿¦ Lookups (Status/Date/Plan)&#xa;í ½í¿ª Helper sources (derived into Case)&#xa;Solid line = FK&#xa;Dashed line = Derived" style="rounded=1;whiteSpace=wrap;html=1;fillColor=#ffffff;strokeColor=#000000;fontSize=12;" parent="1" vertex="1">
          <mxGeometry x="30" y="-90" width="360" height="120" as="geometry" />
        </mxCell>
      </root>
    </mxGraphModel>
  </diagram>
</mxfile>
